<svg width="640" height="113" viewBox="0 0 640 113" fill="none" xmlns="http://www.w3.org/2000/svg">
<path d="M168.095 27.8952C163.515 29.4019 159.959 31.9029 157.428 35.3984C154.957 38.8336 153.722 43.1125 153.722 48.2352C153.722 50.5253 153.933 52.0923 154.355 52.936C154.776 53.7797 154.987 54.292 154.987 54.4728C148.539 54.4728 145.315 51.7307 145.315 46.2464C145.315 42.5099 146.731 38.7733 149.563 35.0368C152.456 31.24 156.132 28.1664 160.592 25.816C165.112 23.4053 169.602 22.2 174.062 22.2C176.292 22.2 178.582 22.6219 180.932 23.4656L178.853 71.1064L198.741 23.4656H211.759L202.267 90H189.249L195.035 49.4104L178.039 90H165.655L167.463 49.2296L152.366 90H145.134L168.095 27.8952ZM224.334 112.6C221.501 112.6 219 111.666 216.831 109.798C214.721 107.99 213.667 105.669 213.667 102.837C213.667 100.185 214.33 98.0155 215.656 96.328C216.981 94.6405 218.699 93.3147 220.808 92.3504C222.918 91.3861 225.75 90.3616 229.306 89.2768L230.21 85.2992C227.136 88.7947 223.46 90.5424 219.181 90.5424C216.288 90.5424 213.938 89.6384 212.13 87.8304C210.382 86.0224 209.508 83.3104 209.508 79.6944C209.508 78.1877 209.749 76.2291 210.232 73.8184L216.379 44.8H229.396L222.888 75.536C222.707 76.2592 222.616 77.0125 222.616 77.796C222.616 80.4477 223.52 81.7736 225.328 81.7736C227.016 81.7736 228.462 81.0805 229.668 79.6944C230.873 78.248 231.837 76.2893 232.56 73.8184L238.708 44.8H251.816L240.787 97.232C239.581 103.018 237.442 107.025 234.368 109.255C231.355 111.485 228.01 112.6 224.334 112.6ZM222.255 104.554C223.34 104.554 224.364 103.982 225.328 102.837C226.293 101.752 227.046 99.9741 227.588 97.5032L228.673 92.1696C225.479 93.2544 223.008 94.52 221.26 95.9664C219.513 97.4128 218.639 99.2811 218.639 101.571C218.639 102.294 219 102.957 219.724 103.56C220.447 104.223 221.291 104.554 222.255 104.554ZM292.926 91.4464C286.116 91.4464 281.113 89.7288 277.919 86.2936C274.725 82.8584 273.128 77.1632 273.128 69.208C273.128 62.88 274.183 56.0699 276.292 48.7776C278.462 41.4853 281.897 35.2477 286.598 30.0648C291.359 24.8216 297.385 22.2 304.678 22.2C309.198 22.2 312.844 23.1944 315.616 25.1832C318.388 27.172 319.774 30.2155 319.774 34.3136C319.774 36.9051 319.262 38.9541 318.238 40.4608C317.213 41.9072 315.616 42.6304 313.446 42.6304C311.277 42.6304 309.559 41.8469 308.294 40.28C309.378 39.7376 310.343 38.6528 311.186 37.0256C312.03 35.3984 312.452 33.7109 312.452 31.9632C312.452 30.336 312 29.0101 311.096 27.9856C310.252 26.9611 308.866 26.4488 306.938 26.4488C303.744 26.4488 300.7 28.6485 297.807 33.048C294.914 37.3872 292.564 42.8715 290.756 49.5008C289.008 56.1301 288.134 62.5184 288.134 68.6656C288.134 73.2459 288.918 76.7413 290.485 79.152C292.052 81.5627 294.884 82.768 298.982 82.768C302.538 82.768 305.823 81.9845 308.836 80.4176C311.849 78.8507 314.441 76.6208 316.61 73.728L318.69 74.632C317.183 78.4288 314.953 81.5928 312 84.124C309.047 86.6552 305.883 88.5235 302.508 89.7288C299.133 90.8739 295.939 91.4464 292.926 91.4464ZM329.544 90.3616C325.084 90.3616 321.559 89.2165 318.967 86.9264C316.376 84.6363 315.08 81.0203 315.08 76.0784C315.08 71.9803 315.924 67.4301 317.611 62.428C319.299 57.4259 322.011 53.1168 325.747 49.5008C329.484 45.8245 334.185 43.9864 339.85 43.9864C347.564 43.9864 351.421 48.8077 351.421 58.4504V58.5408C351.602 58.6011 351.933 58.6312 352.415 58.6312C354.404 58.6312 356.694 58.1189 359.286 57.0944C361.877 56.0096 364.228 54.7139 366.337 53.2072L367.15 55.648C365.403 57.5163 363.113 59.1133 360.28 60.4392C357.508 61.7048 354.464 62.6088 351.15 63.1512C350.668 68.6355 349.432 73.4267 347.443 77.5248C345.454 81.6229 342.893 84.7869 339.759 87.0168C336.625 89.2467 333.22 90.3616 329.544 90.3616ZM333.16 82.2256C334.606 82.2256 336.053 81.412 337.499 79.7848C338.946 78.0973 340.211 75.8373 341.296 73.0048C342.381 70.112 343.164 66.9179 343.646 63.4224C342.019 63.0608 341.206 61.7952 341.206 59.6256C341.206 57.1547 342.14 55.5275 344.008 54.744C343.888 52.7552 343.586 51.3992 343.104 50.676C342.622 49.8925 341.778 49.5008 340.573 49.5008C338.584 49.5008 336.656 50.9472 334.787 53.84C332.919 56.7328 331.412 60.1981 330.267 64.236C329.122 68.2739 328.55 71.8296 328.55 74.9032C328.55 77.796 328.881 79.7547 329.544 80.7792C330.207 81.7435 331.412 82.2256 333.16 82.2256ZM369.271 90.3616C364.811 90.3616 361.285 89.2165 358.694 86.9264C356.102 84.6363 354.807 81.0203 354.807 76.0784C354.807 71.9803 355.65 67.4301 357.338 62.428C359.025 57.4259 361.737 53.1168 365.474 49.5008C369.21 45.8245 373.911 43.9864 379.576 43.9864C387.29 43.9864 391.147 48.8077 391.147 58.4504V58.5408C391.328 58.6011 391.66 58.6312 392.142 58.6312C394.131 58.6312 396.421 58.1189 399.012 57.0944C401.604 56.0096 403.954 54.7139 406.063 53.2072L406.877 55.648C405.129 57.5163 402.839 59.1133 400.007 60.4392C397.234 61.7048 394.191 62.6088 390.876 63.1512C390.394 68.6355 389.159 73.4267 387.17 77.5248C385.181 81.6229 382.62 84.7869 379.486 87.0168C376.352 89.2467 372.947 90.3616 369.271 90.3616ZM372.887 82.2256C374.333 82.2256 375.779 81.412 377.226 79.7848C378.672 78.0973 379.938 75.8373 381.023 73.0048C382.107 70.112 382.891 66.9179 383.373 63.4224C381.746 63.0608 380.932 61.7952 380.932 59.6256C380.932 57.1547 381.866 55.5275 383.735 54.744C383.614 52.7552 383.313 51.3992 382.831 50.676C382.348 49.8925 381.505 49.5008 380.299 49.5008C378.311 49.5008 376.382 50.9472 374.514 53.84C372.646 56.7328 371.139 60.1981 369.994 64.236C368.849 68.2739 368.276 71.8296 368.276 74.9032C368.276 77.796 368.608 79.7547 369.271 80.7792C369.934 81.7435 371.139 82.2256 372.887 82.2256ZM429.789 90.5424C426.053 90.5424 423.22 89.6685 421.292 87.9208C419.363 86.1128 418.399 83.5515 418.399 80.2368C418.399 78.7904 418.58 77.2235 418.941 75.536L419.664 72.0104C419.905 70.9859 420.026 69.8709 420.026 68.6656C420.026 65.7728 418.941 64.3264 416.772 64.3264C415.807 64.3264 414.783 64.5976 413.698 65.14C412.673 65.6824 411.468 66.5261 410.082 67.6712L405.381 90H392.364L405.472 28.528L418.851 26.72L412.071 58.5408L429.518 44.8H438.468L420.388 57.3656C421.292 57.1245 422.286 57.004 423.371 57.004C426.625 57.004 429.096 57.9984 430.784 59.9872C432.471 61.976 433.315 64.5072 433.315 67.5808C433.315 68.8464 433.194 69.9915 432.953 71.016L431.959 75.536C431.657 76.6208 431.507 77.5851 431.507 78.4288C431.507 80.6587 432.682 81.7736 435.032 81.7736C436.358 81.7736 437.202 81.6832 437.564 81.5024C437.925 81.3216 438.136 81.2312 438.196 81.2312C438.076 83.22 437.503 84.9075 436.479 86.2936C435.515 87.6797 434.369 88.7344 433.044 89.4576C431.778 90.1808 430.693 90.5424 429.789 90.5424ZM493.022 91.5368C490.611 91.5368 488.502 91.0245 486.694 90C484.946 89.0357 484.072 87.3181 484.072 84.8472C484.072 83.2803 484.464 81.5325 485.247 79.604C486.332 80.8093 487.327 81.6531 488.231 82.1352C489.195 82.6173 490.219 82.8584 491.304 82.8584C494.318 82.8584 496.547 81.1709 497.994 77.796C499.501 74.4211 500.254 70.6845 500.254 66.5864C500.254 58.9325 497.391 55.1056 491.666 55.1056C490.039 55.1056 488.653 55.196 487.507 55.3768L480.095 90H467.077L479.371 32.5056L492.751 30.6976L488.502 50.7664H489.044C491.334 50.7664 493.474 50.0432 495.463 48.5968C497.451 47.0901 499.049 45.2219 500.254 42.992C501.459 40.7019 502.062 38.4117 502.062 36.1216C502.062 33.3493 501.067 31.0291 499.079 29.1608C497.15 27.2925 494.167 26.3584 490.129 26.3584C486.453 26.3584 482.867 27.2021 479.371 28.8896C475.876 30.5168 473.013 32.9877 470.783 36.3024C468.614 39.6171 467.529 43.6248 467.529 48.3256C467.529 50.5555 467.74 52.1224 468.162 53.0264C468.584 53.8701 468.795 54.3523 468.795 54.4728C465.601 54.4728 463.19 53.84 461.563 52.5744C459.935 51.2485 459.122 49.1091 459.122 46.156C459.122 42.0579 460.659 38.1707 463.732 34.4944C466.806 30.8181 470.874 27.8651 475.936 25.6352C480.999 23.3451 486.332 22.2 491.937 22.2C496.156 22.2 499.711 22.8629 502.604 24.1888C505.497 25.5147 507.637 27.2624 509.023 29.432C510.469 31.6016 511.192 33.9821 511.192 36.5736C511.192 39.3459 510.409 42.0277 508.842 44.6192C507.275 47.2107 505.045 49.32 502.152 50.9472C505.768 51.6101 508.45 53.2976 510.198 56.0096C511.946 58.6613 512.819 61.8253 512.819 65.5016C512.819 68.9368 512.157 72.6733 510.831 76.7112C509.565 80.7491 507.426 84.2445 504.412 87.1976C501.459 90.0904 497.662 91.5368 493.022 91.5368ZM529.148 90.3616C524.688 90.3616 521.163 89.2165 518.571 86.9264C515.98 84.6363 514.684 81.0203 514.684 76.0784C514.684 71.9803 515.528 67.4301 517.215 62.428C518.903 57.4259 521.615 53.1168 525.351 49.5008C529.088 45.8245 533.788 43.9864 539.454 43.9864C547.168 43.9864 551.025 48.8077 551.025 58.4504V58.5408C551.206 58.6011 551.537 58.6312 552.019 58.6312C554.008 58.6312 556.298 58.1189 558.89 57.0944C561.481 56.0096 563.831 54.7139 565.941 53.2072L566.754 55.648C565.007 57.5163 562.716 59.1133 559.884 60.4392C557.112 61.7048 554.068 62.6088 550.754 63.1512C550.271 68.6355 549.036 73.4267 547.047 77.5248C545.058 81.6229 542.497 84.7869 539.363 87.0168C536.229 89.2467 532.824 90.3616 529.148 90.3616ZM532.764 82.2256C534.21 82.2256 535.657 81.412 537.103 79.7848C538.55 78.0973 539.815 75.8373 540.9 73.0048C541.985 70.112 542.768 66.9179 543.25 63.4224C541.623 63.0608 540.81 61.7952 540.81 59.6256C540.81 57.1547 541.744 55.5275 543.612 54.744C543.491 52.7552 543.19 51.3992 542.708 50.676C542.226 49.8925 541.382 49.5008 540.177 49.5008C538.188 49.5008 536.259 50.9472 534.391 53.84C532.523 56.7328 531.016 60.1981 529.871 64.236C528.726 68.2739 528.154 71.8296 528.154 74.9032C528.154 77.796 528.485 79.7547 529.148 80.7792C529.811 81.7435 531.016 82.2256 532.764 82.2256ZM568.875 90.3616C564.415 90.3616 560.889 89.2165 558.298 86.9264C555.706 84.6363 554.411 81.0203 554.411 76.0784C554.411 71.9803 555.254 67.4301 556.942 62.428C558.629 57.4259 561.341 53.1168 565.078 49.5008C568.814 45.8245 573.515 43.9864 579.18 43.9864C586.894 43.9864 590.751 48.8077 590.751 58.4504V58.5408C590.932 58.6011 591.264 58.6312 591.746 58.6312C593.735 58.6312 596.025 58.1189 598.616 57.0944C601.208 56.0096 603.558 54.7139 605.667 53.2072L606.481 55.648C604.733 57.5163 602.443 59.1133 599.611 60.4392C596.838 61.7048 593.795 62.6088 590.48 63.1512C589.998 68.6355 588.763 73.4267 586.774 77.5248C584.785 81.6229 582.224 84.7869 579.09 87.0168C575.956 89.2467 572.551 90.3616 568.875 90.3616ZM572.491 82.2256C573.937 82.2256 575.383 81.412 576.83 79.7848C578.276 78.0973 579.542 75.8373 580.627 73.0048C581.711 70.112 582.495 66.9179 582.977 63.4224C581.35 63.0608 580.536 61.7952 580.536 59.6256C580.536 57.1547 581.47 55.5275 583.339 54.744C583.218 52.7552 582.917 51.3992 582.435 50.676C581.952 49.8925 581.109 49.5008 579.903 49.5008C577.915 49.5008 575.986 50.9472 574.118 53.84C572.249 56.7328 570.743 60.1981 569.598 64.236C568.453 68.2739 567.88 71.8296 567.88 74.9032C567.88 77.796 568.212 79.7547 568.875 80.7792C569.537 81.7435 570.743 82.2256 572.491 82.2256ZM629.393 90.5424C625.657 90.5424 622.824 89.6685 620.895 87.9208C618.967 86.1128 618.003 83.5515 618.003 80.2368C618.003 78.7904 618.183 77.2235 618.545 75.536L619.268 72.0104C619.509 70.9859 619.63 69.8709 619.63 68.6656C619.63 65.7728 618.545 64.3264 616.375 64.3264C615.411 64.3264 614.387 64.5976 613.302 65.14C612.277 65.6824 611.072 66.5261 609.686 67.6712L604.985 90H591.967L605.075 28.528L618.455 26.72L611.675 58.5408L629.122 44.8H638.071L619.991 57.3656C620.895 57.1245 621.89 57.004 622.975 57.004C626.229 57.004 628.7 57.9984 630.387 59.9872C632.075 61.976 632.919 64.5072 632.919 67.5808C632.919 68.8464 632.798 69.9915 632.557 71.016L631.563 75.536C631.261 76.6208 631.111 77.5851 631.111 78.4288C631.111 80.6587 632.286 81.7736 634.636 81.7736C635.962 81.7736 636.806 81.6832 637.167 81.5024C637.529 81.3216 637.74 81.2312 637.8 81.2312C637.68 83.22 637.107 84.9075 636.083 86.2936C635.118 87.6797 633.973 88.7344 632.647 89.4576C631.382 90.1808 630.297 90.5424 629.393 90.5424Z" fill="#FEFBFC"/>
<g clip-path="url(#clip0)">
<path fill-rule="evenodd" clip-rule="evenodd" d="M19.5582 10.7296V96.3833H84.7499H89.2545C91.2592 96.3833 92.8994 94.7433 92.8994 92.7384V14.3744C92.8994 12.3698 91.2594 10.7296 89.2545 10.7296H19.5582Z" fill="#DB71A9"/>
<path fill-rule="evenodd" clip-rule="evenodd" d="M19.5581 96.3833V10.7296H18.6984C14.6893 10.7296 11.4087 14.0099 11.4087 18.0193V103.673C11.4087 99.6635 14.6889 96.3833 18.6982 96.3833H19.5581Z" fill="#E9AACB"/>
<path fill-rule="evenodd" clip-rule="evenodd" d="M84.7499 96.3833H19.5582H18.6985C14.6891 96.3833 11.4089 99.6635 11.4089 103.673C11.4087 107.683 14.6893 110.963 18.6983 110.963H84.7497V96.3833H84.7499Z" fill="white"/>
<path fill-rule="evenodd" clip-rule="evenodd" d="M84.7498 96.3833V110.963H89.2543C91.259 110.963 92.8992 109.323 92.8992 107.318V92.7387C92.8992 94.7433 91.2592 96.3835 89.2543 96.3835H84.7498V96.3833Z" fill="#E9AACB"/>
<path fill-rule="evenodd" clip-rule="evenodd" d="M39.5602 70.7061H72.8971V52.4565C77.3507 51.4459 80.6757 47.4632 80.6757 42.7038C80.6757 37.1804 76.198 32.7027 70.6746 32.7027C68.7298 32.7027 66.9151 33.2584 65.3794 34.2188C63.827 30.708 60.3143 28.2576 56.2286 28.2576C52.1429 28.2576 48.63 30.7078 47.0778 34.2188C45.5422 33.2584 43.7274 32.7027 41.7826 32.7027C36.2592 32.7027 31.7815 37.1804 31.7815 42.7038C31.7815 47.4632 35.1063 51.4459 39.5602 52.4565V70.7061Z" fill="white"/>
<path fill-rule="evenodd" clip-rule="evenodd" d="M72.8971 70.7061H39.5602V77.7444C39.5602 78.3556 40.0603 78.8555 40.6713 78.8555H71.786C72.3971 78.8555 72.8971 78.3554 72.8971 77.7444V70.7061Z" fill="#E3EAEF"/>
<path d="M89.2541 8.69232H18.6981C13.5555 8.69232 9.37134 12.8764 9.37134 18.0193V103.673C9.37134 108.816 13.5555 113 18.6981 113H89.2541C92.3872 113 94.9362 110.451 94.9362 107.318V14.3744C94.9362 11.2413 92.3872 8.69232 89.2541 8.69232V8.69232ZM13.4459 103.673C13.4459 100.777 15.8019 98.4206 18.6981 98.4206H82.7123V108.925H18.6981C15.8019 108.925 13.4459 106.569 13.4459 103.673ZM90.8617 107.318C90.8617 108.204 90.1405 108.925 89.2541 108.925H86.7868V98.4208H89.2541C89.8121 98.4208 90.3518 98.3399 90.8617 98.1893V107.318ZM90.8617 92.7386C90.8617 93.6251 90.1405 94.3463 89.2541 94.3463H21.5951V62.7235C21.5951 61.5983 20.683 60.6862 19.5578 60.6862C18.4327 60.6862 17.5206 61.5983 17.5206 62.7235V94.4214C16.0236 94.6109 14.6358 95.1553 13.4459 95.9691V18.0193C13.4459 15.5279 15.1898 13.4377 17.5206 12.9015V44.388C17.5206 45.5131 18.4327 46.4252 19.5578 46.4252C20.683 46.4252 21.5951 45.5131 21.5951 44.388V12.7668H89.2541C90.1405 12.7668 90.8617 13.488 90.8617 14.3744V92.7386Z" fill="black"/>
<path d="M70.6746 30.6651C69.1345 30.6651 67.6204 30.9581 66.2075 31.5228C63.9945 28.2467 60.2702 26.22 56.2286 26.22C52.1871 26.22 48.4628 28.2467 46.2497 31.5228C44.8369 30.9583 43.3228 30.6651 41.7826 30.6651C35.1446 30.6651 29.7443 36.0655 29.7443 42.7035C29.7443 47.804 32.8706 52.2279 37.5229 53.9689V77.744C37.5229 79.4799 38.9354 80.8925 40.6713 80.8925H71.786C73.5219 80.8925 74.9343 79.4801 74.9343 77.744V53.9691C79.5864 52.2281 82.7128 47.804 82.7128 42.7037C82.7128 36.0657 77.3126 30.6651 70.6746 30.6651ZM41.5974 76.8182V72.7433H70.8598V76.8182H41.5974ZM72.4462 50.4697C71.5183 50.6802 70.8598 51.5051 70.8598 52.4565V68.6688H41.5974V52.4565C41.5974 51.5051 40.939 50.6802 40.011 50.4697C36.3651 49.6424 33.8188 46.4488 33.8188 42.7037C33.8188 38.3124 37.3913 34.7399 41.7826 34.7399C43.2782 34.7399 44.7358 35.1569 45.9975 35.9459C46.4983 36.2592 47.1105 36.3397 47.6756 36.1663C48.2403 35.993 48.7022 35.5829 48.941 35.0426C50.2161 32.1584 53.0766 30.2948 56.2284 30.2948C59.3803 30.2948 62.2408 32.1582 63.5159 35.0426C63.7549 35.5829 64.2165 35.993 64.7813 36.1663C65.3462 36.3399 65.9584 36.2592 66.4593 35.9459C67.7212 35.1569 69.1787 34.7399 70.6744 34.7399C75.0655 34.7399 78.6381 38.3124 78.6381 42.7037C78.6383 46.4488 76.0919 49.6424 72.4462 50.4697Z" fill="black"/>
<path d="M19.558 51.5185C18.4328 51.5185 17.5208 52.4312 17.5208 53.5564C17.5208 54.6816 18.4328 55.5937 19.558 55.5937C20.6832 55.5937 21.5953 54.6816 21.5953 53.5564V53.555C21.5953 52.4298 20.6832 51.5185 19.558 51.5185Z" fill="black"/>
</g>
<defs>
<clipPath id="clip0">
<rect width="104.308" height="104.308" fill="white" transform="translate(0 8.69232)"/>
</clipPath>
</defs>
</svg>
